<svg width="232" height="43" viewBox="0 0 232 43" fill="none" xmlns="http://www.w3.org/2000/svg">
<path d="M36.9478 21.4986C36.9478 30.8594 29.3594 38.4478 19.9986 38.4478C10.6379 38.4478 3.04949 30.8594 3.04949 21.4986C3.04949 12.1379 10.6379 4.54949 19.9986 4.54949C29.3594 4.54949 36.9478 12.1379 36.9478 21.4986ZM8.29626 21.4986C8.29626 27.9617 13.5356 33.201 19.9986 33.201C26.4617 33.201 31.701 27.9617 31.701 21.4986C31.701 15.0356 26.4617 9.79626 19.9986 9.79626C13.5356 9.79626 8.29626 15.0356 8.29626 21.4986Z" fill="url(#paint0_linear_76_85)"/>
<path d="M25.0847 6.58475C25.0847 9.39297 22.8082 11.6695 20 11.6695C17.1918 11.6695 14.9153 9.39297 14.9153 6.58475C14.9153 3.77652 17.1918 1.5 20 1.5C22.8082 1.5 25.0847 3.77652 25.0847 6.58475Z" fill="url(#paint1_linear_76_85)"/>
<path d="M34.9153 26.5847C32.107 26.5847 29.8305 24.3082 29.8305 21.5C29.8305 18.6918 32.107 16.4153 34.9153 16.4153C37.7235 16.4153 40 18.6918 40 21.5C40 24.3082 37.7235 26.5847 34.9153 26.5847Z" fill="url(#paint2_linear_76_85)"/>
<path d="M25.0847 36.4153C25.0847 39.2235 22.8082 41.5 20 41.5C17.1918 41.5 14.9153 39.2235 14.9153 36.4153C14.9153 33.607 17.1918 31.3305 20 31.3305C22.8082 31.3305 25.0847 33.607 25.0847 36.4153Z" fill="url(#paint3_linear_76_85)"/>
<path d="M5.08475 26.5847C2.27652 26.5847 -1.22752e-07 24.3082 0 21.5C1.22752e-07 18.6918 2.27652 16.4153 5.08475 16.4153C7.89297 16.4153 10.1695 18.6918 10.1695 21.5C10.1695 24.3082 7.89297 26.5847 5.08475 26.5847Z" fill="url(#paint4_linear_76_85)"/>
<path d="M70.068 32.56C70.38 33.064 70.344 33.496 69.96 33.856C69.6 34.192 68.976 34.36 68.088 34.36C67.392 34.36 66.768 34.252 66.216 34.036C65.688 33.844 65.292 33.532 65.028 33.1L62.148 28.132C61.836 27.556 61.476 27.1 61.068 26.764C60.66 26.428 60.204 26.176 59.7 26.008C59.22 25.816 58.668 25.696 58.044 25.648C57.444 25.576 56.76 25.54 55.992 25.54H55.02V32.704C55.02 33.808 54.216 34.36 52.608 34.36C50.976 34.36 50.16 33.808 50.16 32.704V12.04C50.16 11.272 50.388 10.66 50.844 10.204C51.3 9.748 51.912 9.52 52.68 9.52H59.952C61.584 9.52 63.024 9.664 64.272 9.952C65.52 10.216 66.564 10.66 67.404 11.284C68.244 11.908 68.88 12.724 69.312 13.732C69.744 14.716 69.96 15.94 69.96 17.404C69.96 19.492 69.516 21.136 68.628 22.336C67.764 23.512 66.492 24.352 64.812 24.856C65.604 25.384 66.252 26.056 66.756 26.872L70.068 32.56ZM55.02 13.84V21.328H59.952C61.488 21.328 62.7 21.052 63.588 20.5C64.476 19.924 64.92 18.916 64.92 17.476C64.92 16.06 64.476 15.1 63.588 14.596C62.7 14.092 61.488 13.84 59.952 13.84H55.02ZM71.1891 25.252C71.1891 23.668 71.4171 22.312 71.8731 21.184C72.3291 20.032 72.9651 19.084 73.7811 18.34C74.6211 17.572 75.6051 17.008 76.7331 16.648C77.8611 16.288 79.0851 16.108 80.4051 16.108C81.7491 16.108 82.9851 16.288 84.1131 16.648C85.2411 17.008 86.2131 17.572 87.0291 18.34C87.8451 19.084 88.4811 20.032 88.9371 21.184C89.3931 22.312 89.6211 23.668 89.6211 25.252C89.6211 26.836 89.3931 28.204 88.9371 29.356C88.4811 30.484 87.8451 31.42 87.0291 32.164C86.2131 32.908 85.2411 33.46 84.1131 33.82C82.9851 34.18 81.7491 34.36 80.4051 34.36C79.0851 34.36 77.8611 34.18 76.7331 33.82C75.6051 33.46 74.6211 32.908 73.7811 32.164C72.9651 31.42 72.3291 30.484 71.8731 29.356C71.4171 28.204 71.1891 26.836 71.1891 25.252ZM76.0491 25.252C76.0491 26.212 76.1571 27.04 76.3731 27.736C76.5891 28.408 76.8891 28.972 77.2731 29.428C77.6571 29.86 78.1131 30.184 78.6411 30.4C79.1931 30.592 79.7811 30.688 80.4051 30.688C81.6771 30.688 82.7211 30.256 83.5371 29.392C84.3771 28.528 84.7971 27.148 84.7971 25.252C84.7971 23.332 84.3771 21.952 83.5371 21.112C82.7211 20.248 81.6771 19.816 80.4051 19.816C79.7811 19.816 79.1931 19.924 78.6411 20.14C78.1131 20.332 77.6571 20.656 77.2731 21.112C76.8891 21.544 76.5891 22.108 76.3731 22.804C76.1571 23.476 76.0491 24.292 76.0491 25.252ZM96.9839 32.704C96.9839 33.808 96.2039 34.36 94.6439 34.36C93.0839 34.36 92.3039 33.808 92.3039 32.704V10.78C92.3039 9.7 93.0839 9.16 94.6439 9.16C96.2039 9.16 96.9839 9.7 96.9839 10.78V32.704ZM104.525 26.368C104.645 27.736 105.041 28.828 105.713 29.644C106.409 30.436 107.465 30.832 108.881 30.832C109.649 30.832 110.321 30.688 110.897 30.4C111.473 30.112 111.965 29.644 112.373 28.996C112.757 28.42 113.633 28.132 115.001 28.132C115.769 28.132 116.285 28.264 116.549 28.528C116.837 28.792 116.981 29.056 116.981 29.32C116.981 29.512 116.933 29.716 116.837 29.932C116.285 31.468 115.289 32.596 113.849 33.316C112.409 34.012 110.729 34.36 108.809 34.36C107.489 34.36 106.277 34.18 105.173 33.82C104.069 33.46 103.109 32.908 102.293 32.164C101.477 31.42 100.841 30.484 100.385 29.356C99.9288 28.204 99.7008 26.836 99.7008 25.252C99.7008 23.668 99.9288 22.312 100.385 21.184C100.841 20.032 101.477 19.084 102.293 18.34C103.109 17.572 104.069 17.008 105.173 16.648C106.277 16.288 107.489 16.108 108.809 16.108C110.009 16.108 111.125 16.276 112.157 16.612C113.189 16.924 114.101 17.392 114.893 18.016C115.685 18.64 116.309 19.42 116.765 20.356C117.245 21.268 117.509 22.324 117.557 23.524V24.496C117.557 25.048 117.365 25.504 116.981 25.864C116.597 26.2 116.117 26.368 115.541 26.368H104.525ZM112.697 23.452C112.697 22.228 112.325 21.292 111.581 20.644C110.837 19.972 109.877 19.636 108.701 19.636C107.453 19.636 106.505 19.984 105.857 20.68C105.233 21.376 104.825 22.3 104.633 23.452H112.697ZM120.613 12.04C120.613 11.272 120.841 10.66 121.297 10.204C121.753 9.748 122.365 9.52 123.133 9.52H130.477C133.861 9.52 136.381 10.168 138.037 11.464C139.693 12.76 140.521 14.908 140.521 17.908C140.521 20.884 139.681 23.068 138.001 24.46C136.345 25.828 133.837 26.512 130.477 26.512H125.473V32.704C125.473 33.808 124.669 34.36 123.061 34.36C121.429 34.36 120.613 33.808 120.613 32.704V12.04ZM125.473 13.84V22.3H130.477C132.109 22.3 133.345 21.964 134.185 21.292C135.049 20.596 135.481 19.492 135.481 17.98C135.481 16.468 135.049 15.4 134.185 14.776C133.345 14.152 132.109 13.84 130.477 13.84H125.473ZM141.783 25.252C141.783 23.668 142.011 22.312 142.467 21.184C142.923 20.032 143.559 19.084 144.375 18.34C145.215 17.572 146.199 17.008 147.327 16.648C148.455 16.288 149.679 16.108 150.999 16.108C152.343 16.108 153.579 16.288 154.707 16.648C155.835 17.008 156.807 17.572 157.623 18.34C158.439 19.084 159.075 20.032 159.531 21.184C159.987 22.312 160.215 23.668 160.215 25.252C160.215 26.836 159.987 28.204 159.531 29.356C159.075 30.484 158.439 31.42 157.623 32.164C156.807 32.908 155.835 33.46 154.707 33.82C153.579 34.18 152.343 34.36 150.999 34.36C149.679 34.36 148.455 34.18 147.327 33.82C146.199 33.46 145.215 32.908 144.375 32.164C143.559 31.42 142.923 30.484 142.467 29.356C142.011 28.204 141.783 26.836 141.783 25.252ZM146.643 25.252C146.643 26.212 146.751 27.04 146.967 27.736C147.183 28.408 147.483 28.972 147.867 29.428C148.251 29.86 148.707 30.184 149.235 30.4C149.787 30.592 150.375 30.688 150.999 30.688C152.271 30.688 153.315 30.256 154.131 29.392C154.971 28.528 155.391 27.148 155.391 25.252C155.391 23.332 154.971 21.952 154.131 21.112C153.315 20.248 152.271 19.816 150.999 19.816C150.375 19.816 149.787 19.924 149.235 20.14C148.707 20.332 148.251 20.656 147.867 21.112C147.483 21.544 147.183 22.108 146.967 22.804C146.751 23.476 146.643 24.292 146.643 25.252ZM179.566 29.392C178.942 31.096 177.886 32.356 176.398 33.172C174.934 33.964 173.206 34.36 171.214 34.36C169.894 34.36 168.67 34.18 167.542 33.82C166.414 33.46 165.442 32.908 164.626 32.164C163.81 31.42 163.162 30.484 162.682 29.356C162.226 28.204 161.998 26.836 161.998 25.252C161.998 23.668 162.226 22.312 162.682 21.184C163.162 20.032 163.81 19.084 164.626 18.34C165.442 17.572 166.414 17.008 167.542 16.648C168.67 16.288 169.894 16.108 171.214 16.108C173.206 16.108 174.946 16.504 176.434 17.296C177.922 18.064 178.954 19.3 179.53 21.004C179.602 21.196 179.638 21.364 179.638 21.508C179.638 21.844 179.458 22.156 179.098 22.444C178.762 22.732 178.21 22.876 177.442 22.876C176.77 22.876 176.194 22.768 175.714 22.552C175.234 22.336 174.898 22.036 174.706 21.652C174.37 20.98 173.89 20.512 173.266 20.248C172.642 19.96 171.958 19.816 171.214 19.816C169.99 19.816 168.958 20.248 168.118 21.112C167.278 21.952 166.858 23.332 166.858 25.252C166.858 27.148 167.278 28.528 168.118 29.392C168.958 30.256 169.99 30.688 171.214 30.688C171.982 30.688 172.666 30.532 173.266 30.22C173.89 29.908 174.382 29.428 174.742 28.78C175.006 28.348 175.39 28.036 175.894 27.844C176.398 27.652 176.938 27.556 177.514 27.556C178.282 27.556 178.834 27.7 179.17 27.988C179.506 28.252 179.674 28.552 179.674 28.888C179.674 29.032 179.638 29.2 179.566 29.392ZM189.357 27.088L187.089 29.5V32.704C187.089 33.808 186.309 34.36 184.749 34.36C183.189 34.36 182.409 33.808 182.409 32.704V10.78C182.409 9.7 183.189 9.16 184.749 9.16C186.309 9.16 187.089 9.7 187.089 10.78V23.668L192.741 17.368C193.101 16.96 193.569 16.636 194.145 16.396C194.721 16.156 195.369 16.06 196.089 16.108C197.025 16.156 197.625 16.432 197.889 16.936C198.153 17.416 197.985 17.968 197.385 18.592L192.273 23.992L198.537 31.876C199.065 32.572 199.197 33.148 198.933 33.604C198.693 34.06 198.105 34.312 197.169 34.36C196.377 34.408 195.681 34.3 195.081 34.036C194.481 33.796 194.025 33.46 193.713 33.028L189.357 27.088ZM204.087 26.368C204.207 27.736 204.603 28.828 205.275 29.644C205.971 30.436 207.027 30.832 208.443 30.832C209.211 30.832 209.883 30.688 210.459 30.4C211.035 30.112 211.527 29.644 211.935 28.996C212.319 28.42 213.195 28.132 214.563 28.132C215.331 28.132 215.847 28.264 216.111 28.528C216.399 28.792 216.543 29.056 216.543 29.32C216.543 29.512 216.495 29.716 216.399 29.932C215.847 31.468 214.851 32.596 213.411 33.316C211.971 34.012 210.291 34.36 208.371 34.36C207.051 34.36 205.839 34.18 204.735 33.82C203.631 33.46 202.671 32.908 201.855 32.164C201.039 31.42 200.403 30.484 199.947 29.356C199.491 28.204 199.263 26.836 199.263 25.252C199.263 23.668 199.491 22.312 199.947 21.184C200.403 20.032 201.039 19.084 201.855 18.34C202.671 17.572 203.631 17.008 204.735 16.648C205.839 16.288 207.051 16.108 208.371 16.108C209.571 16.108 210.687 16.276 211.719 16.612C212.751 16.924 213.663 17.392 214.455 18.016C215.247 18.64 215.871 19.42 216.327 20.356C216.807 21.268 217.071 22.324 217.119 23.524V24.496C217.119 25.048 216.927 25.504 216.543 25.864C216.159 26.2 215.679 26.368 215.103 26.368H204.087ZM212.259 23.452C212.259 22.228 211.887 21.292 211.143 20.644C210.399 19.972 209.439 19.636 208.263 19.636C207.015 19.636 206.067 19.984 205.419 20.68C204.795 21.376 204.387 22.3 204.195 23.452H212.259ZM229.644 30.076C230.7 30.076 231.228 30.7 231.228 31.948C231.228 32.692 231.084 33.22 230.796 33.532C230.508 33.844 230.088 34 229.536 34H227.628C225.612 34 224.124 33.604 223.164 32.812C222.228 31.996 221.76 30.616 221.76 28.672V19.816H220.176C219.624 19.816 219.228 19.684 218.988 19.42C218.772 19.156 218.664 18.724 218.664 18.124C218.664 17.548 218.772 17.128 218.988 16.864C219.228 16.6 219.624 16.468 220.176 16.468H221.76V12.796C221.76 11.716 222.54 11.176 224.1 11.176C225.66 11.176 226.44 11.716 226.44 12.796V16.468H229.644C230.196 16.468 230.58 16.6 230.796 16.864C231.036 17.128 231.156 17.548 231.156 18.124C231.156 18.724 231.036 19.168 230.796 19.456C230.58 19.72 230.196 19.84 229.644 19.816H226.44V27.304C226.44 27.88 226.464 28.348 226.512 28.708C226.584 29.068 226.704 29.356 226.872 29.572C227.04 29.764 227.268 29.896 227.556 29.968C227.844 30.04 228.216 30.076 228.672 30.076H229.644Z" fill="#040A1D"/>
<defs>
<linearGradient id="paint0_linear_76_85" x1="-3.3664" y1="-5.49078" x2="45.5527" y2="49.3861" gradientUnits="userSpaceOnUse">
<stop stop-color="#0B2FD3"/>
<stop offset="1" stop-color="#ED25F8"/>
</linearGradient>
<linearGradient id="paint1_linear_76_85" x1="-3.3664" y1="-5.49078" x2="45.5527" y2="49.3861" gradientUnits="userSpaceOnUse">
<stop stop-color="#0B2FD3"/>
<stop offset="1" stop-color="#ED25F8"/>
</linearGradient>
<linearGradient id="paint2_linear_76_85" x1="-3.3664" y1="-5.49078" x2="45.5527" y2="49.3861" gradientUnits="userSpaceOnUse">
<stop stop-color="#0B2FD3"/>
<stop offset="1" stop-color="#ED25F8"/>
</linearGradient>
<linearGradient id="paint3_linear_76_85" x1="-3.3664" y1="-5.49078" x2="45.5527" y2="49.3861" gradientUnits="userSpaceOnUse">
<stop stop-color="#0B2FD3"/>
<stop offset="1" stop-color="#ED25F8"/>
</linearGradient>
<linearGradient id="paint4_linear_76_85" x1="-3.3664" y1="-5.49078" x2="45.5527" y2="49.3861" gradientUnits="userSpaceOnUse">
<stop stop-color="#0B2FD3"/>
<stop offset="1" stop-color="#ED25F8"/>
</linearGradient>
</defs>
</svg>
