<svg width="56" height="56" viewBox="0 0 56 56" fill="none" xmlns="http://www.w3.org/2000/svg">
<path d="M51.7269 27.9981C51.7269 41.1032 41.1032 51.7269 27.9981 51.7269C14.893 51.7269 4.26929 41.1032 4.26929 27.9981C4.26929 14.893 14.893 4.26929 27.9981 4.26929C41.1032 4.26929 51.7269 14.893 51.7269 27.9981ZM11.6148 27.9981C11.6148 37.0464 18.9498 44.3814 27.9981 44.3814C37.0464 44.3814 44.3814 37.0464 44.3814 27.9981C44.3814 18.9498 37.0464 11.6148 27.9981 11.6148C18.9498 11.6148 11.6148 18.9498 11.6148 27.9981Z" fill="url(#paint0_linear_56_11)"/>
<path d="M35.1186 7.11864C35.1186 11.0502 31.9315 14.2373 28 14.2373C24.0685 14.2373 20.8814 11.0502 20.8814 7.11864C20.8814 3.18713 24.0685 0 28 0C31.9315 0 35.1186 3.18713 35.1186 7.11864Z" fill="url(#paint1_linear_56_11)"/>
<path d="M48.8814 35.1186C44.9498 35.1186 41.7627 31.9315 41.7627 28C41.7627 24.0685 44.9498 20.8814 48.8814 20.8814C52.8129 20.8814 56 24.0685 56 28C56 31.9315 52.8129 35.1186 48.8814 35.1186Z" fill="url(#paint2_linear_56_11)"/>
<path d="M35.1186 48.8814C35.1186 52.8129 31.9315 56 28 56C24.0685 56 20.8814 52.8129 20.8814 48.8814C20.8814 44.9498 24.0685 41.7627 28 41.7627C31.9315 41.7627 35.1186 44.9498 35.1186 48.8814Z" fill="url(#paint3_linear_56_11)"/>
<path d="M7.11864 35.1186C3.18713 35.1186 -1.71852e-07 31.9315 0 28C1.71852e-07 24.0685 3.18713 20.8814 7.11864 20.8814C11.0502 20.8814 14.2373 24.0685 14.2373 28C14.2373 31.9315 11.0502 35.1186 7.11864 35.1186Z" fill="url(#paint4_linear_56_11)"/>
<defs>
<linearGradient id="paint0_linear_56_11" x1="-4.71296" y1="-9.7871" x2="63.7738" y2="67.0405" gradientUnits="userSpaceOnUse">
<stop stop-color="#0B2FD3"/>
<stop offset="1" stop-color="#ED25F8"/>
</linearGradient>
<linearGradient id="paint1_linear_56_11" x1="-4.71296" y1="-9.7871" x2="63.7738" y2="67.0405" gradientUnits="userSpaceOnUse">
<stop stop-color="#0B2FD3"/>
<stop offset="1" stop-color="#ED25F8"/>
</linearGradient>
<linearGradient id="paint2_linear_56_11" x1="-4.71296" y1="-9.7871" x2="63.7738" y2="67.0405" gradientUnits="userSpaceOnUse">
<stop stop-color="#0B2FD3"/>
<stop offset="1" stop-color="#ED25F8"/>
</linearGradient>
<linearGradient id="paint3_linear_56_11" x1="-4.71296" y1="-9.7871" x2="63.7738" y2="67.0405" gradientUnits="userSpaceOnUse">
<stop stop-color="#0B2FD3"/>
<stop offset="1" stop-color="#ED25F8"/>
</linearGradient>
<linearGradient id="paint4_linear_56_11" x1="-4.71296" y1="-9.7871" x2="63.7738" y2="67.0405" gradientUnits="userSpaceOnUse">
<stop stop-color="#0B2FD3"/>
<stop offset="1" stop-color="#ED25F8"/>
</linearGradient>
</defs>
</svg>
